<mxfile host="app.diagrams.net" modified="2024-04-17T11:50:00.972Z" agent="Mozilla/5.0 (Windows NT 10.0; Win64; x64) AppleWebKit/537.36 (KHTML, like Gecko) Chrome/123.0.0.0 Safari/537.36" etag="-7XGHzFRuToOvNEdyJ45" version="24.2.3" type="google">
  <diagram name="Page-1" id="8R29YDiQQZtU8yUh7Yt8">
    <mxGraphModel dx="1776" dy="568" grid="1" gridSize="10" guides="1" tooltips="1" connect="1" arrows="1" fold="1" page="1" pageScale="1" pageWidth="827" pageHeight="1169" math="0" shadow="0">
      <root>
        <mxCell id="0" />
        <mxCell id="1" parent="0" />
        <mxCell id="pMUquvmxj0hfnBleCV3S-7" value="" style="edgeStyle=orthogonalEdgeStyle;rounded=0;orthogonalLoop=1;jettySize=auto;html=1;entryX=0.044;entryY=0.331;entryDx=0;entryDy=0;entryPerimeter=0;" edge="1" parent="1" target="pMUquvmxj0hfnBleCV3S-3">
          <mxGeometry relative="1" as="geometry">
            <mxPoint x="200" y="130.37999999999994" as="sourcePoint" />
            <mxPoint x="325.05999999999995" y="130.02999999999992" as="targetPoint" />
            <Array as="points">
              <mxPoint x="336" y="130" />
            </Array>
          </mxGeometry>
        </mxCell>
        <mxCell id="pMUquvmxj0hfnBleCV3S-50" value="Signup" style="edgeLabel;html=1;align=center;verticalAlign=middle;resizable=0;points=[];" vertex="1" connectable="0" parent="pMUquvmxj0hfnBleCV3S-7">
          <mxGeometry x="-0.1255" y="2" relative="1" as="geometry">
            <mxPoint as="offset" />
          </mxGeometry>
        </mxCell>
        <mxCell id="pMUquvmxj0hfnBleCV3S-1" value="&lt;font style=&quot;font-size: 24px;&quot;&gt;User&lt;/font&gt;" style="whiteSpace=wrap;html=1;" vertex="1" parent="1">
          <mxGeometry x="10" y="120" width="190" height="120" as="geometry" />
        </mxCell>
        <mxCell id="pMUquvmxj0hfnBleCV3S-11" value="" style="edgeStyle=orthogonalEdgeStyle;rounded=0;orthogonalLoop=1;jettySize=auto;html=1;entryX=-0.006;entryY=0.063;entryDx=0;entryDy=0;entryPerimeter=0;exitX=0.991;exitY=0.342;exitDx=0;exitDy=0;exitPerimeter=0;" edge="1" parent="1" source="pMUquvmxj0hfnBleCV3S-3" target="pMUquvmxj0hfnBleCV3S-2">
          <mxGeometry relative="1" as="geometry">
            <mxPoint x="520" y="129.99999999999994" as="sourcePoint" />
            <mxPoint x="600" y="129.99999999999994" as="targetPoint" />
            <Array as="points">
              <mxPoint x="478" y="130" />
              <mxPoint x="600" y="130" />
              <mxPoint x="600" y="128" />
            </Array>
          </mxGeometry>
        </mxCell>
        <mxCell id="pMUquvmxj0hfnBleCV3S-63" value="Create Account" style="edgeLabel;html=1;align=center;verticalAlign=middle;resizable=0;points=[];" vertex="1" connectable="0" parent="pMUquvmxj0hfnBleCV3S-11">
          <mxGeometry x="0.1923" relative="1" as="geometry">
            <mxPoint as="offset" />
          </mxGeometry>
        </mxCell>
        <mxCell id="pMUquvmxj0hfnBleCV3S-2" value="&lt;font style=&quot;font-size: 24px;&quot;&gt;Database&lt;/font&gt;" style="whiteSpace=wrap;html=1;" vertex="1" parent="1">
          <mxGeometry x="620" y="120" width="170" height="120" as="geometry" />
        </mxCell>
        <mxCell id="pMUquvmxj0hfnBleCV3S-3" value="&lt;font style=&quot;font-size: 24px;&quot;&gt;Care4All&lt;/font&gt;" style="ellipse;whiteSpace=wrap;html=1;" vertex="1" parent="1">
          <mxGeometry x="349" y="40" width="130" height="270" as="geometry" />
        </mxCell>
        <mxCell id="pMUquvmxj0hfnBleCV3S-18" value="" style="edgeStyle=none;orthogonalLoop=1;jettySize=auto;html=1;rounded=0;entryX=-0.015;entryY=0.417;entryDx=0;entryDy=0;entryPerimeter=0;" edge="1" parent="1" target="pMUquvmxj0hfnBleCV3S-3">
          <mxGeometry width="100" relative="1" as="geometry">
            <mxPoint x="200" y="152.44" as="sourcePoint" />
            <mxPoint x="330.00000000000045" y="152.82" as="targetPoint" />
            <Array as="points" />
          </mxGeometry>
        </mxCell>
        <mxCell id="pMUquvmxj0hfnBleCV3S-51" value="Login" style="edgeLabel;html=1;align=center;verticalAlign=middle;resizable=0;points=[];" vertex="1" connectable="0" parent="pMUquvmxj0hfnBleCV3S-18">
          <mxGeometry x="0.0497" relative="1" as="geometry">
            <mxPoint x="-7" y="-3" as="offset" />
          </mxGeometry>
        </mxCell>
        <mxCell id="pMUquvmxj0hfnBleCV3S-21" value="" style="edgeStyle=none;orthogonalLoop=1;jettySize=auto;html=1;rounded=0;entryX=-0.011;entryY=0.592;entryDx=0;entryDy=0;entryPerimeter=0;" edge="1" parent="1" target="pMUquvmxj0hfnBleCV3S-3">
          <mxGeometry width="100" relative="1" as="geometry">
            <mxPoint x="200" y="200" as="sourcePoint" />
            <mxPoint x="335" y="200.38" as="targetPoint" />
            <Array as="points">
              <mxPoint x="275" y="200" />
            </Array>
          </mxGeometry>
        </mxCell>
        <mxCell id="pMUquvmxj0hfnBleCV3S-53" value="Pet List" style="edgeLabel;html=1;align=center;verticalAlign=middle;resizable=0;points=[];" vertex="1" connectable="0" parent="pMUquvmxj0hfnBleCV3S-21">
          <mxGeometry x="0.1815" y="-3" relative="1" as="geometry">
            <mxPoint x="-17" as="offset" />
          </mxGeometry>
        </mxCell>
        <mxCell id="pMUquvmxj0hfnBleCV3S-25" value="" style="edgeStyle=orthogonalEdgeStyle;rounded=0;orthogonalLoop=1;jettySize=auto;html=1;entryX=0;entryY=0.25;entryDx=0;entryDy=0;" edge="1" parent="1" target="pMUquvmxj0hfnBleCV3S-2">
          <mxGeometry relative="1" as="geometry">
            <mxPoint x="539.97" y="150.46" as="sourcePoint" />
            <mxPoint x="600" y="150" as="targetPoint" />
            <Array as="points">
              <mxPoint x="479" y="151" />
            </Array>
          </mxGeometry>
        </mxCell>
        <mxCell id="pMUquvmxj0hfnBleCV3S-62" value="Verify" style="edgeLabel;html=1;align=center;verticalAlign=middle;resizable=0;points=[];" vertex="1" connectable="0" parent="pMUquvmxj0hfnBleCV3S-25">
          <mxGeometry x="0.1849" relative="1" as="geometry">
            <mxPoint as="offset" />
          </mxGeometry>
        </mxCell>
        <mxCell id="pMUquvmxj0hfnBleCV3S-30" value="" style="edgeStyle=none;orthogonalLoop=1;jettySize=auto;html=1;rounded=0;entryX=0.991;entryY=0.427;entryDx=0;entryDy=0;entryPerimeter=0;exitX=0;exitY=0.5;exitDx=0;exitDy=0;" edge="1" parent="1" source="pMUquvmxj0hfnBleCV3S-3">
          <mxGeometry width="100" relative="1" as="geometry">
            <mxPoint x="330.71999999999997" y="174.90999999999997" as="sourcePoint" />
            <mxPoint x="199.28000000000006" y="174.73000000000002" as="targetPoint" />
            <Array as="points">
              <mxPoint x="260.71999999999997" y="174.95" />
            </Array>
          </mxGeometry>
        </mxCell>
        <mxCell id="pMUquvmxj0hfnBleCV3S-52" value="Login Successfully" style="edgeLabel;html=1;align=center;verticalAlign=middle;resizable=0;points=[];" vertex="1" connectable="0" parent="pMUquvmxj0hfnBleCV3S-30">
          <mxGeometry x="-0.0892" y="1" relative="1" as="geometry">
            <mxPoint as="offset" />
          </mxGeometry>
        </mxCell>
        <mxCell id="pMUquvmxj0hfnBleCV3S-39" value="" style="edgeStyle=orthogonalEdgeStyle;rounded=0;orthogonalLoop=1;jettySize=auto;html=1;entryX=-0.011;entryY=0.654;entryDx=0;entryDy=0;entryPerimeter=0;" edge="1" parent="1" target="pMUquvmxj0hfnBleCV3S-2">
          <mxGeometry relative="1" as="geometry">
            <mxPoint x="539.97" y="200.46" as="sourcePoint" />
            <mxPoint x="600" y="200" as="targetPoint" />
            <Array as="points">
              <mxPoint x="479" y="201" />
              <mxPoint x="479" y="199" />
            </Array>
          </mxGeometry>
        </mxCell>
        <mxCell id="pMUquvmxj0hfnBleCV3S-60" value="Add Pet" style="edgeLabel;html=1;align=center;verticalAlign=middle;resizable=0;points=[];" vertex="1" connectable="0" parent="pMUquvmxj0hfnBleCV3S-39">
          <mxGeometry x="0.2488" y="1" relative="1" as="geometry">
            <mxPoint as="offset" />
          </mxGeometry>
        </mxCell>
        <mxCell id="pMUquvmxj0hfnBleCV3S-41" value="" style="edgeStyle=none;orthogonalLoop=1;jettySize=auto;html=1;rounded=0;entryX=0.991;entryY=0.427;entryDx=0;entryDy=0;entryPerimeter=0;exitX=-0.006;exitY=0.462;exitDx=0;exitDy=0;exitPerimeter=0;" edge="1" parent="1" source="pMUquvmxj0hfnBleCV3S-2">
          <mxGeometry width="100" relative="1" as="geometry">
            <mxPoint x="628.72" y="175" as="sourcePoint" />
            <mxPoint x="479.0000000000001" y="174.73000000000002" as="targetPoint" />
            <Array as="points" />
          </mxGeometry>
        </mxCell>
        <mxCell id="pMUquvmxj0hfnBleCV3S-61" value="Verified Successfully" style="edgeLabel;html=1;align=center;verticalAlign=middle;resizable=0;points=[];" vertex="1" connectable="0" parent="pMUquvmxj0hfnBleCV3S-41">
          <mxGeometry x="0.0741" relative="1" as="geometry">
            <mxPoint x="5" as="offset" />
          </mxGeometry>
        </mxCell>
        <mxCell id="pMUquvmxj0hfnBleCV3S-43" value="" style="edgeStyle=none;orthogonalLoop=1;jettySize=auto;html=1;rounded=0;entryX=0.056;entryY=0.701;entryDx=0;entryDy=0;entryPerimeter=0;" edge="1" parent="1" target="pMUquvmxj0hfnBleCV3S-3">
          <mxGeometry width="100" relative="1" as="geometry">
            <mxPoint x="201" y="230" as="sourcePoint" />
            <mxPoint x="349" y="230" as="targetPoint" />
            <Array as="points" />
          </mxGeometry>
        </mxCell>
        <mxCell id="pMUquvmxj0hfnBleCV3S-56" value="Remove Pet" style="edgeLabel;html=1;align=center;verticalAlign=middle;resizable=0;points=[];" vertex="1" connectable="0" parent="pMUquvmxj0hfnBleCV3S-43">
          <mxGeometry x="-0.0891" y="-2" relative="1" as="geometry">
            <mxPoint as="offset" />
          </mxGeometry>
        </mxCell>
        <mxCell id="pMUquvmxj0hfnBleCV3S-47" value="" style="edgeStyle=none;orthogonalLoop=1;jettySize=auto;html=1;rounded=0;entryX=-0.001;entryY=0.927;entryDx=0;entryDy=0;entryPerimeter=0;" edge="1" parent="1" target="pMUquvmxj0hfnBleCV3S-2">
          <mxGeometry width="100" relative="1" as="geometry">
            <mxPoint x="470" y="231" as="sourcePoint" />
            <mxPoint x="590" y="230" as="targetPoint" />
            <Array as="points">
              <mxPoint x="545" y="231" />
            </Array>
          </mxGeometry>
        </mxCell>
        <mxCell id="pMUquvmxj0hfnBleCV3S-57" value="Delete Pet" style="edgeLabel;html=1;align=center;verticalAlign=middle;resizable=0;points=[];" vertex="1" connectable="0" parent="pMUquvmxj0hfnBleCV3S-47">
          <mxGeometry x="-0.0574" y="-1" relative="1" as="geometry">
            <mxPoint as="offset" />
          </mxGeometry>
        </mxCell>
      </root>
    </mxGraphModel>
  </diagram>
</mxfile>
